<?xml version="1.0" standalone="no"?>
<!DOCTYPE svg PUBLIC "-//W3C//DTD SVG 20010904//EN"
 "http://www.w3.org/TR/2001/REC-SVG-20010904/DTD/svg10.dtd">
<svg version="1.0" xmlns="http://www.w3.org/2000/svg"
 width="850.000000pt" height="850.000000pt" viewBox="0 0 850.000000 850.000000"
 preserveAspectRatio="xMidYMid meet">
<metadata>
Created by potrace 1.14, written by Peter Selinger 2001-2017
</metadata>
<g transform="translate(0.000000,850.000000) scale(0.100000,-0.100000)"
fill="#000000" stroke="none">
<path d="M365 7626 c-57 -35 -75 -53 -99 -97 -41 -77 -54 -132 -76 -329 -66
-584 -62 -735 25 -899 l35 -65 0 -388 0 -388 80 0 80 0 0 350 0 350 29 0 c16
0 84 -9 152 -21 67 -11 181 -29 253 -39 72 -11 154 -24 181 -30 28 -6 84 -15
125 -20 41 -5 120 -16 175 -24 167 -25 216 -22 300 19 89 42 179 135 228 234
28 57 32 76 35 165 4 103 -2 138 -49 306 -20 71 -20 81 -7 195 7 66 13 185 13
265 0 138 -1 147 -27 196 -33 64 -112 132 -198 172 -36 18 -126 45 -203 62
l-139 30 -421 -1 -422 0 -70 -43z m870 -233 c85 -24 170 -60 208 -87 113 -82
166 -370 109 -586 -25 -93 -77 -195 -120 -236 -100 -95 -310 -134 -559 -103
-149 18 -279 86 -332 174 -86 142 -104 409 -40 583 64 175 135 231 344 276 11
2 88 3 170 1 112 -2 168 -8 220 -22z m-963 -142 c-20 -33 -38 -58 -41 -56 -6
7 64 115 75 115 2 0 -13 -27 -34 -59z"/>
<path d="M6703 7642 c-66 -49 -129 -121 -141 -160 -22 -71 -71 -436 -72 -523
0 -26 -3 -61 -6 -78 l-6 -31 -679 0 -678 0 -3 148 -3 147 -67 3 -68 3 -1 47
c0 26 0 109 1 186 l1 139 -103 -5 c-57 -3 -116 -1 -133 4 -48 14 -335 56 -530
77 -246 27 -271 30 -404 37 -103 6 -123 4 -184 -16 -120 -39 -219 -120 -245
-200 -17 -52 -82 -494 -82 -557 0 -10 -133 -13 -670 -13 l-670 0 -1 -570 c-1
-313 -1 -579 -1 -590 0 -11 0 -74 1 -140 l1 -120 765 0 765 0 0 -123 0 -122
108 0 c96 0 113 -3 157 -26 28 -14 64 -44 82 -67 31 -41 52 -106 39 -119 -4
-4 -33 -9 -66 -11 -50 -4 -60 -2 -60 11 0 9 -5 28 -12 42 -39 86 -219 91 -257
8 -14 -30 -14 -36 -1 -28 6 4 10 -8 10 -29 0 -43 11 -50 132 -82 119 -32 179
-59 216 -97 85 -88 54 -235 -63 -296 -71 -37 -214 -42 -297 -11 -53 20 -112
71 -144 126 -17 28 -28 11 -20 -30 10 -53 63 -116 123 -145 l53 -26 0 -187 0
-188 -770 0 -770 0 2 182 3 183 46 6 c84 12 161 63 198 130 l25 44 -48 -42
c-26 -23 -68 -49 -93 -57 -60 -20 -166 -20 -226 0 -63 21 -130 84 -164 152
-26 54 -28 65 -28 187 0 157 20 218 91 289 43 43 130 86 175 86 19 0 19 6 17
123 l-3 122 -760 0 -760 0 -3 -117 -3 -118 -84 0 -85 0 0 -490 0 -490 85 0 85
0 0 -105 0 -105 768 -2 767 -3 3 -727 2 -728 765 0 765 0 0 228 0 227 -34 -37
c-55 -60 -108 -81 -211 -86 -111 -5 -182 18 -245 79 -64 63 -93 135 -98 247
-7 146 29 245 118 325 85 77 195 97 304 56 64 -24 127 -87 150 -152 13 -39 14
-19 15 265 l1 308 761 2 761 3 -2 193 -1 192 51 0 50 0 0 35 0 35 -50 0 -50 0
0 243 c0 133 -5 258 -10 278 -16 58 -51 82 -123 87 -52 3 -67 0 -96 -20 -76
-52 -76 -50 -79 -334 l-3 -254 -65 0 -64 0 0 259 c0 252 -1 259 -23 292 -29
44 -60 59 -122 59 -59 0 -110 -23 -139 -63 -20 -27 -21 -44 -24 -288 l-3 -259
-60 0 -59 0 0 355 0 355 60 0 60 0 0 -36 0 -35 33 25 c48 37 111 56 181 56 75
0 133 -25 172 -73 l28 -35 19 24 c36 47 103 77 182 82 40 2 87 0 104 -6 l31
-11 0 135 0 134 -760 0 -760 0 0 341 0 341 23 -6 c83 -23 221 -49 406 -76 117
-17 217 -33 221 -35 20 -12 489 -65 525 -60 141 23 277 154 334 321 10 30 21
57 25 61 3 3 6 -197 6 -445 l0 -452 760 0 760 0 0 -118 0 -118 59 -12 c97 -20
174 -92 188 -175 4 -30 2 -35 -18 -40 -46 -13 -109 -8 -109 8 0 8 -5 26 -12
40 -39 86 -219 91 -257 8 -16 -34 -14 -35 17 -19 27 14 62 19 112 17 24 -1 25
-2 22 -69 l-3 -68 58 -18 c121 -38 174 -81 194 -156 22 -85 -21 -175 -106
-219 -66 -34 -206 -42 -286 -16 -56 19 -122 72 -145 117 -21 40 -38 36 -31 -8
17 -105 125 -182 260 -185 l57 -2 0 -183 0 -184 -760 0 -760 0 0 -215 0 -215
31 0 31 0 -44 -52 c-23 -29 -82 -95 -130 -147 -82 -88 -99 -111 -80 -111 4 0
48 44 99 97 l92 98 1 -231 0 -231 45 -59 c24 -32 45 -62 45 -66 0 -5 -31 -8
-70 -8 l-70 0 -121 162 -122 161 -34 -36 c-41 -45 -48 -84 -8 -47 15 14 29 20
34 14 4 -5 61 -80 126 -166 104 -140 121 -158 146 -158 l29 0 0 -135 0 -135
760 0 760 0 0 730 0 730 755 0 755 0 0 709 0 708 -37 7 c-21 3 -361 6 -755 6
l-718 0 0 405 c0 223 2 405 5 405 3 0 22 -11 43 -25 67 -44 205 -80 452 -116
69 -10 197 -29 285 -44 88 -14 207 -32 265 -41 121 -17 293 -20 298 -5 2 6 23
19 47 30 99 44 184 153 215 279 25 100 25 161 -2 285 -26 122 -29 257 -9 409
16 124 10 258 -14 337 -21 69 -84 136 -167 178 -78 39 -106 50 -138 56 -14 3
-61 12 -105 21 -197 41 -280 47 -630 53 l-350 5 -42 -30z m-4493 -3933 l0
-191 39 31 c49 39 110 61 170 61 98 0 163 -36 204 -114 21 -39 22 -55 25 -323
l3 -283 -65 0 -66 0 0 263 c0 244 -1 264 -20 295 -24 38 -54 52 -117 52 -54 0
-120 -34 -149 -77 -17 -25 -19 -53 -22 -280 l-4 -253 -59 0 -59 0 0 505 0 505
60 0 60 0 0 -191z m3494 -120 c109 -40 176 -159 176 -310 l0 -69 -236 0 -237
0 5 -51 c17 -169 229 -239 355 -117 l32 31 36 -27 c19 -15 35 -30 35 -34 0
-17 -71 -82 -111 -103 -66 -34 -204 -39 -281 -10 -71 27 -132 86 -166 159 -32
69 -42 213 -22 290 31 114 113 214 203 245 61 22 147 21 211 -4z m754 -40 l3
-56 -60 -6 c-35 -3 -74 -14 -93 -25 -62 -39 -63 -43 -66 -319 l-4 -253 -59 0
-59 0 0 355 0 355 60 0 60 0 0 -41 0 -42 22 28 c30 39 94 66 148 63 l45 -3 3
-56z"/>
<path d="M5537 3496 c-52 -19 -76 -42 -103 -101 -42 -89 -48 -85 150 -85 l175
0 -6 38 c-17 116 -117 184 -216 148z"/>
<path d="M2054 7647 c-3 -8 -4 -45 -2 -83 l3 -69 580 0 c319 0 618 2 664 5
l85 5 13 65 c7 35 11 70 8 77 -7 20 -1343 19 -1351 0z"/>
<path d="M8140 5785 l0 -205 80 0 80 0 0 205 0 205 -80 0 -80 0 0 -205z"/>
<path d="M8140 4918 c-1 -233 -1 -487 -1 -566 -1 -79 1 -146 5 -149 3 -4 6 1
6 10 0 14 12 17 75 17 l75 0 0 555 0 555 -80 0 -80 0 0 -422z"/>
<path d="M1935 5081 c-16 -4 -40 -13 -52 -19 -65 -35 -110 -159 -99 -273 12
-135 51 -195 144 -223 l22 -7 0 234 0 234 41 -7 c66 -12 111 -57 133 -132 4
-14 16 -18 56 -18 50 0 51 1 48 28 -3 24 -7 27 -45 30 -40 3 -43 6 -53 40 -12
48 -64 97 -115 111 -22 6 -42 10 -45 10 -3 -1 -18 -4 -35 -8z"/>
<path d="M2765 5085 c-5 -2 -22 -6 -37 -9 -34 -8 -84 -50 -104 -88 l-16 -30
35 26 c59 45 162 51 220 13 44 -29 77 -82 96 -158 l19 -74 1 50 c2 108 -48
219 -112 248 -34 15 -86 26 -102 22z"/>
<path d="M5685 5085 c-5 -2 -22 -6 -37 -9 -34 -8 -84 -50 -104 -88 l-16 -30
35 26 c59 45 162 51 220 13 44 -29 77 -82 96 -158 l19 -74 1 50 c2 108 -48
219 -112 248 -34 15 -86 26 -102 22z"/>
<path d="M3330 4920 c0 -67 50 -134 123 -165 l37 -15 0 -70 c0 -65 2 -71 27
-87 41 -27 162 -25 200 3 38 28 52 84 30 118 -23 34 -57 50 -157 75 -46 12
-107 32 -135 45 -53 24 -105 79 -105 109 0 10 -4 17 -10 17 -5 0 -10 -14 -10
-30z"/>
<path d="M6250 4920 c0 -100 99 -177 263 -206 l37 -6 0 -75 0 -75 33 7 c75 15
118 86 84 139 -23 34 -57 50 -157 75 -46 12 -107 32 -135 45 -53 24 -105 79
-105 109 0 10 -4 17 -10 17 -5 0 -10 -14 -10 -30z"/>
<path d="M2447 4795 c-11 -43 9 -167 35 -223 32 -68 103 -136 165 -156 81 -27
191 -22 256 11 46 23 107 84 129 127 l20 41 -31 -37 c-18 -20 -61 -51 -96 -69
-61 -30 -69 -31 -157 -27 -110 5 -153 23 -217 93 -54 59 -81 119 -90 204 -6
56 -8 61 -14 36z"/>
<path d="M5367 4795 c-11 -43 9 -167 35 -223 32 -68 103 -136 166 -156 70 -24
179 -22 236 2 57 26 123 86 148 136 l20 41 -31 -37 c-18 -20 -61 -51 -96 -69
-61 -30 -69 -31 -157 -27 -110 5 -153 23 -217 93 -54 59 -81 119 -90 204 -6
56 -8 61 -14 36z"/>
<path d="M8140 3410 l0 -540 80 0 80 0 0 540 0 540 -80 0 -80 0 0 -540z"/>
<path d="M267 3843 c-16 -4 -17 -38 -15 -571 l3 -567 75 0 75 0 3 573 2 572
-62 -1 c-35 -1 -71 -3 -81 -6z"/>
<path d="M4532 3328 l-2 -508 55 0 55 0 0 35 0 35 -50 0 -50 0 -3 473 -2 472
-3 -507z"/>
<path d="M1515 3495 c-39 -14 -105 -74 -105 -96 0 -5 13 -1 29 10 58 42 165
44 219 4 25 -18 54 -65 66 -105 7 -23 106 -27 106 -4 0 35 -13 46 -51 46 -36
0 -39 2 -49 39 -10 40 -77 111 -104 111 -7 0 -26 2 -42 5 -16 3 -47 -2 -69
-10z"/>
<path d="M3157 3496 c-64 -23 -105 -75 -122 -153 l-7 -33 176 0 175 0 -6 38
c-17 116 -117 184 -216 148z"/>
<path d="M3965 3495 c-39 -14 -105 -74 -105 -96 0 -5 13 -1 29 10 58 42 165
44 219 4 25 -18 54 -65 66 -105 4 -14 16 -18 56 -18 50 0 51 1 48 28 -3 24 -7
27 -45 30 -40 3 -43 5 -53 41 -10 40 -77 111 -104 111 -7 0 -26 2 -42 5 -16 3
-47 -2 -69 -10z"/>
<path d="M6895 3503 c-48 -10 -77 -28 -90 -54 -21 -39 -19 -42 16 -24 39 21
128 21 167 1 37 -19 72 -62 72 -87 0 -16 8 -19 55 -19 54 0 55 0 55 30 0 29
-2 30 -45 30 -35 0 -47 4 -51 18 -12 38 -34 68 -61 83 -31 19 -87 29 -118 22z"/>
<path d="M6653 3324 c10 -89 74 -141 222 -180 117 -31 171 -56 180 -84 9 -28
25 -15 25 21 0 44 -45 84 -116 104 -156 43 -193 57 -231 84 -25 18 -47 44 -54
65 -18 50 -33 45 -26 -10z"/>
<path d="M1250 3240 c-11 -209 37 -324 161 -388 55 -28 74 -33 136 -33 113 -1
206 48 252 132 l25 44 -48 -42 c-58 -51 -119 -73 -206 -73 -95 0 -155 24 -216
85 -61 61 -85 123 -94 245 -6 76 -7 79 -10 30z"/>
<path d="M3700 3240 c-11 -209 37 -324 161 -388 55 -28 74 -33 136 -33 113 -1
206 48 252 132 l25 44 -48 -42 c-58 -51 -119 -73 -206 -73 -95 0 -155 24 -216
85 -61 61 -85 123 -94 245 -6 76 -7 79 -10 30z"/>
<path d="M3032 3159 c17 -169 229 -239 355 -117 l32 31 36 -27 35 -27 0 95 0
96 -231 0 -232 0 5 -51z"/>
<path d="M6633 3004 c12 -75 79 -144 169 -173 40 -13 158 -16 204 -5 66 16
124 57 150 106 l14 28 -47 -30 c-62 -40 -102 -50 -195 -50 -124 0 -223 51
-267 138 -18 35 -34 27 -28 -14z"/>
<path d="M550 2621 c-19 -4 -63 -22 -97 -39 -50 -26 -75 -32 -123 -32 l-60 0
0 -82 c0 -46 -6 -132 -14 -193 -8 -60 -24 -193 -35 -295 -12 -102 -26 -228
-32 -281 -16 -132 -7 -298 21 -368 41 -106 104 -157 245 -201 63 -19 293 -65
450 -90 33 -5 94 -16 135 -25 169 -35 379 -67 445 -68 57 -2 80 3 125 24 74
35 151 97 198 161 42 56 88 176 98 255 5 33 17 62 40 92 33 43 34 48 34 132
l0 88 -62 3 -63 3 0 80 c0 44 7 149 14 233 l15 153 33 14 33 14 0 175 0 175
-167 4 c-93 3 -208 10 -258 16 -174 20 -210 24 -590 51 -157 11 -332 11 -385
1z m676 -286 c242 -43 347 -164 369 -425 10 -115 -17 -277 -60 -368 -48 -101
-68 -127 -130 -167 -81 -52 -142 -67 -295 -72 -154 -6 -286 15 -387 62 -83 38
-115 66 -150 132 -48 90 -67 186 -67 338 1 252 59 379 206 454 35 17 95 38
133 45 95 19 274 19 381 1z"/>
<path d="M6835 2603 c-22 -3 -47 -10 -55 -17 -27 -23 -81 -36 -151 -36 l-69 0
0 -147 c0 -82 -7 -204 -15 -273 -61 -500 -67 -639 -39 -845 8 -60 17 -129 21
-152 l5 -43 -706 0 -706 0 0 324 0 324 -47 4 c-27 2 -55 6 -63 9 -12 3 -15 -7
-15 -50 0 -37 -5 -56 -14 -59 -11 -4 -12 18 -7 119 3 68 8 185 12 259 4 91 10
142 20 157 11 17 14 63 14 198 l0 175 -252 0 c-139 0 -325 5 -413 10 -438 27
-569 30 -666 15 -150 -22 -159 -27 -221 -130 -53 -88 -78 -170 -82 -277 -2
-51 -9 -113 -14 -138 -20 -84 -53 -421 -54 -543 -1 -75 3 -137 11 -160 7 -21
11 -40 9 -41 -2 -3 -990 -15 -1225 -16 l-73 0 0 -75 0 -75 721 0 720 0 57 -26
c80 -36 176 -57 522 -110 126 -19 294 -41 464 -60 136 -15 140 -15 210 6 100
31 176 93 217 178 18 35 26 43 43 38 11 -2 38 -8 59 -11 l37 -7 -2 -92 -3 -91
733 -3 c676 -2 733 -1 739 15 3 9 1 56 -6 105 -7 49 -10 92 -8 95 3 3 32 -4
64 -15 32 -11 81 -24 108 -30 28 -6 91 -20 140 -31 50 -12 144 -30 210 -42 66
-11 165 -30 220 -41 208 -42 351 -60 486 -62 l136 -1 56 38 c164 113 233 267
216 482 -4 55 -13 132 -18 170 -6 39 -11 89 -11 113 l0 42 75 0 75 0 0 315 0
315 -70 0 -70 0 -1 33 -1 32 -8 -38 c-9 -47 -21 -60 -51 -55 -23 3 -24 7 -27
84 l-3 82 -182 5 c-100 3 -267 13 -372 21 -412 35 -556 41 -680 29z"/>
</g>
</svg>
